<svg width="512" height="512" viewBox="0 0 512 512" fill="none" xmlns="http://www.w3.org/2000/svg">
<rect width="512" height="512" fill="white"/>
<path d="M316 196V316H196V196H316V196ZM320 192H192V320H320V192Z" fill="url(#paint0_linear)"/>
<path d="M256 220.2L291.82 256.02L256 291.84L220.18 256.02L256 220.2ZM256 214.544L214.524 256.02L256 297.496L297.476 256.02L256 214.544Z" fill="url(#paint1_linear)"/>
<path d="M256 242.172L269.848 256.02L256 269.868L242.152 256.02L256 242.172ZM256 236.516L236.496 256.02L256 275.524L275.504 256.02L256 236.516Z" fill="url(#paint2_linear)"/>
<defs>
<linearGradient id="paint0_linear" x1="192.008" y1="192.002" x2="308.016" y2="246.097" gradientUnits="userSpaceOnUse">
<stop stop-color="#E0302F"/>
<stop offset="1" stop-color="#3281DD"/>
</linearGradient>
<linearGradient id="paint1_linear" x1="202.895" y1="221.953" x2="278.075" y2="257.01" gradientUnits="userSpaceOnUse">
<stop stop-color="#E0302F"/>
<stop offset="1" stop-color="#3281DD"/>
</linearGradient>
<linearGradient id="paint2_linear" x1="213.522" y1="251.152" x2="248.876" y2="267.637" gradientUnits="userSpaceOnUse">
<stop stop-color="#E0302F"/>
<stop offset="1" stop-color="#3281DD"/>
</linearGradient>
</defs>
</svg>
